<svg width="32" height="32" viewBox="0 0 32 32" fill="none" xmlns="http://www.w3.org/2000/svg">
<path d="M22.6667 25.6267H6.66667V9.33332H16V6.66666H6.66667C5.2 6.66666 4 7.86666 4 9.33332V25.3333C4 26.8 5.2 28 6.66667 28H22.6667C24.1333 28 25.3333 26.8 25.3333 25.3333V16H22.6667V25.6267Z" fill="#54585F"/>
<path d="M25.3333 2.66666H22.6666V6.66666H18.6666C18.6799 6.67999 18.6666 9.33332 18.6666 9.33332H22.6666V13.32C22.6799 13.3333 25.3333 13.32 25.3333 13.32V9.33332H29.3333V6.66666H25.3333V2.66666ZM9.33325 12H19.9999V14.6667H9.33325V12ZM9.33325 16V18.6667H19.9999V16H15.9999H9.33325ZM9.33325 20H19.9999V22.6667H9.33325V20Z" fill="#54585F"/>
</svg>
