<svg width="40" height="40" viewBox="0 0 40 40" fill="none" xmlns="http://www.w3.org/2000/svg">
<path d="M31.6667 38.8333L30.6667 38C27.3334 34.8333 25.0001 32.8333 25.0001 30.3333C25.0001 28.3333 26.6667 26.6667 28.6667 26.6667C29.8334 26.6667 31.0001 27.1667 31.6667 28C32.3334 27.1667 33.5001 26.6667 34.6667 26.6667C36.6667 26.6667 38.3334 28.1667 38.3334 30.3333C38.3334 32.8333 36.0001 34.8333 32.6667 38L31.6667 38.8333ZM30.0001 3.33334C31.8334 3.33334 33.3334 4.83334 33.3334 6.66668V21.8L31.6667 21.6667L30.0001 21.8V6.66668H21.6667V20L17.5001 16.25L13.3334 20V6.66668H10.0001V33.3333H21.8001C22.0001 34.5333 22.4167 35.65 23.0001 36.6667H10.0001C8.16675 36.6667 6.66675 35.1667 6.66675 33.3333V6.66668C6.66675 4.83334 8.16675 3.33334 10.0001 3.33334H30.0001Z" fill="#282A2E"/>
</svg>
