<svg width="40" height="40" viewBox="0 0 40 40" fill="none" xmlns="http://www.w3.org/2000/svg">
<path d="M30 20C29.0833 20 28.3333 20.75 28.3333 21.6667V30.3667C28.3333 31.2833 27.5833 32.0333 26.6667 32.0333H10C9.08333 32.0333 8.33333 31.2833 8.33333 30.3667V13.3333C8.33333 12.4167 9.08333 11.6667 10 11.6667H18.3333C19.25 11.6667 20 10.9167 20 10C20 9.08334 19.25 8.33334 18.3333 8.33334H8.33333C6.5 8.33334 5 9.83334 5 11.6667V31.6667C5 33.5 6.5 35 8.33333 35H28.3333C30.1667 35 31.6667 33.5 31.6667 31.6667V21.6667C31.6667 20.75 30.9167 20 30 20ZM35.0333 8.33334H31.6667V4.96668C31.6667 4.06668 30.9333 3.33334 30.0333 3.33334H29.9833C29.0667 3.33334 28.3333 4.06668 28.3333 4.96668V8.33334H24.9833C24.0833 8.33334 23.35 9.06668 23.3333 9.96668V10.0167C23.3333 10.9333 24.0667 11.6667 24.9833 11.6667H28.3333V15.0167C28.3333 15.9167 29.0667 16.6667 29.9833 16.65H30.0333C30.9333 16.65 31.6667 15.9167 31.6667 15.0167V11.6667H35.0333C35.9333 11.6667 36.6667 10.9333 36.6667 10.0333V9.96668C36.6667 9.06668 35.9333 8.33334 35.0333 8.33334Z" fill="#5D0E41"/>
<path d="M23.3334 15H13.3334C12.4167 15 11.6667 15.75 11.6667 16.6667C11.6667 17.5833 12.4167 18.3333 13.3334 18.3333H23.3334C24.2501 18.3333 25.0001 17.5833 25.0001 16.6667C25.0001 15.75 24.2501 15 23.3334 15ZM23.3334 20H13.3334C12.4167 20 11.6667 20.75 11.6667 21.6667C11.6667 22.5833 12.4167 23.3333 13.3334 23.3333H23.3334C24.2501 23.3333 25.0001 22.5833 25.0001 21.6667C25.0001 20.75 24.2501 20 23.3334 20ZM23.3334 25H13.3334C12.4167 25 11.6667 25.75 11.6667 26.6667C11.6667 27.5833 12.4167 28.3333 13.3334 28.3333H23.3334C24.2501 28.3333 25.0001 27.5833 25.0001 26.6667C25.0001 25.75 24.2501 25 23.3334 25Z" fill="#5D0E41"/>
</svg>
