<svg width="32" height="32" viewBox="0 0 32 32" fill="none" xmlns="http://www.w3.org/2000/svg">
<path d="M11.4279 17.3333L16.6946 22.6C16.9374 22.8515 17.0718 23.1883 17.0688 23.5379C17.0658 23.8875 16.9255 24.2219 16.6783 24.4691C16.4311 24.7163 16.0967 24.8565 15.7471 24.8596C15.3975 24.8626 15.0607 24.7282 14.8092 24.4853L7.26656 16.9427C7.14231 16.8191 7.04371 16.6722 6.97643 16.5105C6.90915 16.3487 6.87451 16.1752 6.87451 16C6.87451 15.8248 6.90915 15.6513 6.97643 15.4895C7.04371 15.3278 7.14231 15.1809 7.26656 15.0573L14.8092 7.51467C15.0618 7.27779 15.3967 7.14849 15.7429 7.15411C16.0892 7.15973 16.4196 7.29984 16.6644 7.54479C16.9092 7.78974 17.0491 8.12031 17.0544 8.46656C17.0598 8.81281 16.9303 9.14757 16.6932 9.4L11.4266 14.6667L24.2079 14.6667C24.5615 14.6667 24.9007 14.8071 25.1507 15.0572C25.4007 15.3072 25.5412 15.6464 25.5412 16C25.5412 16.3536 25.4007 16.6928 25.1507 16.9428C24.9007 17.1929 24.5615 17.3333 24.2079 17.3333H11.4279Z" fill="#282A2E"/>
</svg>
