<svg width="30" height="30" viewBox="0 0 30 30" fill="none" xmlns="http://www.w3.org/2000/svg">
<path d="M17.5394 22.5286L19.3144 20.7536L21.9644 23.4161L24.6144 20.7536L26.3894 22.5286L23.7269 25.1786L26.3894 27.8286L24.6144 29.6036L21.9644 26.9411L19.3144 29.6036L17.5394 27.8286L20.2019 25.1786L17.5394 22.5286ZM5.71436 6.42856H23.2144C24.6019 6.42856 25.7144 7.54106 25.7144 8.92856V18.6786C24.9519 18.2411 24.1144 17.9286 23.2144 17.7786V8.92856H5.71436V26.4286H14.5644C14.7144 27.3286 15.0269 28.1661 15.4644 28.9286H5.71436C4.32686 28.9286 3.21436 27.8161 3.21436 26.4286V8.92856C3.21436 7.54106 4.32686 6.42856 5.71436 6.42856ZM8.21436 11.4286H20.7144V13.9286H8.21436V11.4286ZM8.21436 16.4286H20.7144V17.7786C19.6519 17.9536 18.6769 18.3536 17.8144 18.9286H8.21436V16.4286ZM8.21436 21.4286H14.4644V23.9286H8.21436V21.4286Z" fill="#54585F"/>
</svg>
